#!OML:ASF H:\MichaelJackson\Top Level 1\Subject 1\Session 1\male.ASF
:FULLY-SPECIFIED
:DEGREES
148
root 7.17713 14.9136 -20.0085 24.0003 0.322292 1.15367
lowerback 19.4925 0.56502 0.865708
upperback 3.1114 0.803006 -1.32156
thorax -7.50869 0.346863 -2.12384
lowerneck -7.68754 -2.29923 1.01778
upperneck -24.8913 -2.7824 2.29843
head -6.32844 -1.6129 0.654395
rclavicle -1.28216e-014 1.22253e-014
rhumerus -26.2757 8.0375 -87.1805
rradius 50.8815
rwrist -1.51026
rhand -37.7985 -39.5729
rfingers 7.12502
rthumb -10.8449 -69.2729
lclavicle -1.28216e-014 1.22253e-014
lhumerus -35.5521 -32.2727 98.8166
lradius 54.8549
lwrist 29.8997
lhand -27.9395 4.87523
lfingers 7.12502
lthumb -1.3275 34.8508
rfemur -72.9561 0.761428 5.73635
rtibia 60.1602
rfoot -16.0839 -6.58936
rtoes -13.9846
lfemur -65.8461 -9.28849 -20.4425
ltibia 69.9152
lfoot -26.9128 4.2408
ltoes 6.43104
149
root 7.11584 14.8083 -19.8562 23.3595 0.563937 1.20188
lowerback 19.6994 0.617079 0.684153
upperback 3.22789 0.833144 -1.33925
thorax -7.49456 0.366803 -2.04941
lowerneck -7.57462 -2.34695 1.11501
upperneck -24.5932 -2.84372 2.32656
head -6.24974 -1.65002 0.646446
rclavicle -9.93923e-017 -2.83268e-015
rhumerus -25.3222 8.00425 -86.957
rradius 51.0055
rwrist -1.30432
rhand -37.5996 -39.8132
rfingers 7.12502
rthumb -10.6531 -69.5231
lclavicle -9.93923e-017 -2.83268e-015
lhumerus -33.9908 -32.5417 98.6505
lradius 53.5632
lwrist 30.3465
lhand -27.9608 5.20206
lfingers 7.12502
lthumb -1.34807 35.1775
rfemur -72.9792 0.479207 6.34213
rtibia 62.24
rfoot -16.5346 -5.44663
rtoes -12.4268
lfemur -65.4458 -9.48743 -20.394
ltibia 71.7612
lfoot -28.1402 4.79313
ltoes 6.10759
150
root 7.05464 14.7001 -19.7015 22.698 0.869873 1.32552
lowerback 19.8222 0.623903 0.490385
upperback 3.32835 0.798622 -1.39327
thorax -7.45465 0.35582 -1.98933
lowerneck -7.47192 -2.39488 1.20826
upperneck -24.262 -2.89767 2.39937
head -6.15818 -1.6856 0.65276
rclavicle -5.46658e-015 1.30204e-014
rhumerus -24.4901 7.94216 -86.7061
rradius 51.5221
rwrist -1.10306
rhand -37.3684 -39.8833
rfingers 7.12502
rthumb -10.43 -69.6046
lclavicle -5.46658e-015 1.30204e-014
lhumerus -32.4931 -32.7312 98.3485
lradius 52.5551
lwrist 30.6934
lhand -27.8193 5.65134
lfingers 7.12502
lthumb -1.21135 35.6276
rfemur -72.9412 0.128226 6.87602
rtibia 64.4736
rfoot -16.9416 -4.92092
rtoes -11.1049
lfemur -64.9701 -9.79719 -20.4092
ltibia 73.5604
lfoot -29.3886 5.41588
ltoes 5.67841
151
root 6.99349 14.592 -19.544 22.0549 1.24433 1.51475
lowerback 19.8441 0.589715 0.296535
upperback 3.39962 0.708052 -1.48321
thorax -7.39356 0.317599 -1.95207
lowerneck -7.38158 -2.44645 1.28852
upperneck -23.9093 -2.94903 2.51653
head -6.05709 -1.72104 0.674866
rclavicle -7.60351e-015 -2.98177e-016
rhumerus -23.8155 7.8756 -86.4141
rradius 52.5077
rwrist -1.08511
rhand -37.1903 -39.7763
rfingers 7.12502
rthumb -10.2582 -69.5062
lclavicle -7.60351e-015 -2.98177e-016
lhumerus -31.1452 -32.8762 97.9252
lradius 51.9633
lwrist 30.8839
lhand -27.4934 6.15364
lfingers 7.12502
lthumb -0.896641 36.1315
rfemur -72.8575 -0.251059 7.27112
rtibia 66.7039
rfoot -17.3163 -5.03215
rtoes -11.2995
lfemur -64.4441 -10.2084 -20.4724
ltibia 75.2787
lfoot -30.645 6.07575
ltoes 5.1742
152
root 6.93242 14.4877 -19.3841 21.4632 1.68001 1.74286
lowerback 19.7468 0.523267 0.091834
upperback 3.44332 0.57369 -1.58092
thorax -7.29971 0.258588 -1.9041
lowerneck -7.34723 -2.49389 1.31004
upperneck -23.5257 -2.98726 2.68049
head -5.9355 -1.74703 0.720068
rclavicle 8.10669e-015 4.0813e-015
rhumerus -23.2851 7.89313 -86.0265
rradius 54.0111
rwrist -1.43041
rhand -37.1201 -39.5824
rfingers 7.12502
rthumb -10.1905 -69.3156
lclavicle 8.10669e-015 4.0813e-015
lhumerus -29.9875 -32.9813 97.4017
lradius 51.8968
lwrist 30.8841
lhand -27.0107 6.44903
lfingers 7.12502
lthumb -0.430449 36.4283
rfemur -72.7561 -0.620382 7.51704
rtibia 68.8362
rfoot -17.5935 -5.53553
rtoes -12.5162
lfemur -63.8887 -10.6884 -20.5569
ltibia 76.886
lfoot -31.8823 6.74232
ltoes 4.59632
153
root 6.87149 14.3888 -19.2219 20.9418 2.15078 1.97726
lowerback 19.5392 0.441296 -0.114456
upperback 3.44738 0.420139 -1.67973
thorax -7.18987 0.190058 -1.85066
lowerneck -7.35409 -2.53975 1.28163
upperneck -23.1216 -3.01869 2.87716
head -5.7996 -1.7666 0.782712
rclavicle -2.39784e-015 -5.8393e-015
rhumerus -22.9093 8.02909 -85.5003
rradius 56.0511
rwrist -2.19764
rhand -37.1627 -39.3809
rfingers 7.12502
rthumb -10.2316 -69.1121
lclavicle -2.39784e-015 -5.8393e-015
lhumerus -29.0626 -33.1028 96.7841
lradius 52.4314
lwrist 30.7463
lhand -26.3339 6.64901
lfingers 7.12502
lthumb 0.223276 36.6286
rfemur -72.648 -0.960024 7.66586
rtibia 70.8265
rfoot -17.789 -6.21392
rtoes -14.3779
lfemur -63.3154 -11.1873 -20.6358
ltibia 78.3669
lfoot -33.0931 7.38595
ltoes 3.9752
154
root 6.81066 14.2967 -19.0585 20.5052 2.64049 2.18252
lowerback 19.2282 0.353927 -0.313663
upperback 3.409 0.263841 -1.76462
thorax -7.06985 0.1197 -1.78536
lowerneck -7.39548 -2.5845 1.21716
upperneck -22.7063 -3.04862 3.08231
head -5.65416 -1.78222 0.853019
rclavicle 1.27719e-014 -8.15017e-015
rhumerus -22.6329 8.30731 -84.7749
rradius 58.5761
rwrist -3.36086
rhand -37.2775 -39.2625
rfingers 7.12502
rthumb -10.3423 -68.9882
lclavicle 1.27719e-014 -8.15017e-015
lhumerus -28.3503 -33.2883 96.0505
lradius 53.5959
lwrist 30.5733
lhand -25.5255 6.55545
lfingers 7.12502
lthumb 1.00399 36.5328
rfemur -72.5404 -1.27414 7.81331
rtibia 72.6713
rfoot -17.971 -6.91806
rtoes -16.2368
lfemur -62.7443 -11.6535 -20.681
ltibia 79.7099
lfoot -34.2548 7.987
ltoes 3.29302
155
root 6.74996 14.2139 -18.8942 20.1101 3.11079 2.32727
lowerback 18.8621 0.277684 -0.510887
upperback 3.34236 0.125953 -1.82412
thorax -6.94937 0.0578748 -1.69912
lowerneck -7.49755 -2.62123 1.10039
upperneck -22.2461 -3.06625 3.30733
head -5.48386 -1.78741 0.936133
rclavicle 4.47266e-015 3.08116e-015
rhumerus -22.401 8.73531 -83.7842
rradius 61.4921
rwrist -4.73772
rhand -37.4413 -39.2164
rfingers 7.12502
rthumb -10.5004 -68.9341
lclavicle 4.47266e-015 3.08116e-015
lhumerus -27.7853 -33.5556 95.1628
lradius 55.3695
lwrist 30.4915
lhand -24.6507 6.24567
lfingers 7.12502
lthumb 1.84893 36.2174
rfemur -72.3665 -1.53806 8.03667
rtibia 74.3642
rfoot -18.2407 -7.61702
rtoes -17.7432
lfemur -62.1216 -12.0301 -20.6825
ltibia 80.9042
lfoot -35.3571 8.54449
ltoes 2.53002
